<?xml version="1.0" encoding="UTF-8"?>
<svg version="1.1" xmlns="http://www.w3.org/2000/svg" width="756" height="498">
<path d="M0 0 C249.48 0 498.96 0 756 0 C756 164.34 756 328.68 756 498 C506.52 498 257.04 498 0 498 C0 333.66 0 169.32 0 0 Z " fill="#292929" transform="translate(0,0)"/>
<path d="M0 0 C1.76104678 15.29776779 1.76104678 15.29776779 -2 21 C-3.47269851 22.12053148 -4.94641579 23.23999061 -6.4375 24.3359375 C-9.90297773 28.02667129 -11.30787975 33.30548939 -13 38 C-10.29802896 36.04504448 -7.64698719 34.02868331 -5 32 C-4.00097656 31.24976562 -3.00195312 30.49953125 -1.97265625 29.7265625 C3.9156193 25.17001754 8.01237958 21.10757966 11.0078125 14.1328125 C12.44171625 11.05048397 14.04870775 9.64723289 17 8 C21.10936683 6.58637781 24.63694314 6 29 6 C28.34206835 7.67013418 27.67276716 9.3357865 27 11 C26.4121875 12.7325 26.4121875 12.7325 25.8125 14.5 C23.61746894 18.73868066 21.29866923 20.96859348 17 23 C15.13988281 23.36544922 15.13988281 23.36544922 13.2421875 23.73828125 C8.15569652 24.93188762 5.05601065 27.87437418 1.3125 31.375 C0.03836947 32.52931846 -1.23635731 33.68297917 -2.51171875 34.8359375 C-3.40733521 35.65964844 -3.40733521 35.65964844 -4.32104492 36.5 C-5.75343077 37.77971189 -7.26117865 38.97422508 -8.78125 40.1484375 C-11.04312132 42.03598505 -12.3362194 43.71923326 -13.8125 46.25 C-14.23144531 46.95640625 -14.65039062 47.6628125 -15.08203125 48.390625 C-15.38496094 48.92171875 -15.68789063 49.4528125 -16 50 C-13.42800906 48.80920749 -10.86881419 47.59864909 -8.3125 46.375 C-7.59126953 46.04371094 -6.87003906 45.71242187 -6.12695312 45.37109375 C-1.07597239 42.92632682 1.55891615 40.39928409 5 36 C8.41855582 33.52790385 11.61643214 33.79232864 15.75 33.875 C16.92046875 33.89304688 18.0909375 33.91109375 19.296875 33.9296875 C20.18890625 33.95289063 21.0809375 33.97609375 22 34 C16.0483 44.03718899 16.0483 44.03718899 10 46 C8.43963251 46.0916278 6.87554735 46.13003397 5.3125 46.125 C-3.17099508 46.80877898 -11.97216688 50.18811537 -19 55 C-21.53480676 58.22246721 -22.33921493 61.00225033 -23 65 C-23.4125 66.11375 -23.825 67.2275 -24.25 68.375 C-25.32832189 73.58688915 -25.15671928 78.6976642 -25 84 C-19.99616081 77.87902462 -16.57615124 73.10170147 -15.46484375 65.22265625 C-14.67829602 61.46176836 -12.78469759 59.54254997 -10 57 C-3.375 53 -3.375 53 -1 53 C-0.58415393 59.7921525 -1.83298693 64.48157941 -6.3125 69.6875 C-9 72 -9 72 -11.83203125 73.73046875 C-17.98570578 78.13895815 -23.64299186 85.33867703 -25.78125 92.68359375 C-26.16469578 102.4135304 -21.59233424 112.6353912 -17 121 C-16.77737362 118.27132267 -16.57147676 115.54308042 -16.375 112.8125 C-16.31054688 112.04357422 -16.24609375 111.27464844 -16.1796875 110.48242188 C-15.87476301 106.04195903 -16.04872355 103.09768055 -18 99 C-19.06331463 93.39714983 -18.16258072 89.67391217 -15 84.9375 C-14.01980088 83.61014702 -13.02630025 82.29203871 -12 81 C-7.43218378 85.38009775 -6.78070868 89.48108403 -6.5390625 95.62109375 C-7 98 -7 98 -8.9453125 100.72265625 C-11.54330419 104.86660117 -11.87032316 108.2065799 -12.25 113 C-12.32734375 113.78117187 -12.4046875 114.56234375 -12.484375 115.3671875 C-12.69270026 117.57692334 -12.8477603 119.78584256 -13 122 C-13.11472656 123.05445313 -13.22945313 124.10890625 -13.34765625 125.1953125 C-12.86339153 129.10207728 -10.84315491 131.1699934 -8.1875 133.875 C-7.69918701 134.39094727 -7.21087402 134.90689453 -6.70776367 135.43847656 C-1.95481009 140.31976521 3.30770352 144.25651682 9 148 C6.22302755 140.02845554 2.73868578 133.73868578 -3.25 127.75 C-6.10541348 124.89458652 -6.94943294 122.83739044 -7.1953125 118.765625 C-7.17210937 117.60546875 -7.14890625 116.4453125 -7.125 115.25 C-7.10695313 114.07953125 -7.08890625 112.9090625 -7.0703125 111.703125 C-7.04710937 110.81109375 -7.02390625 109.9190625 -7 109 C3.1973133 115.02860032 3.1973133 115.02860032 5 121 C5.1255172 122.66519485 5.22703797 124.33226959 5.3125 126 C5.77638902 133.36171712 8.93368122 139.41188803 12 146 C12.29648437 146.92683594 12.59296875 147.85367188 12.8984375 148.80859375 C13.81379266 151.17251587 13.81379266 151.17251587 16.13671875 152.07421875 C16.97847656 152.27660156 17.82023437 152.47898438 18.6875 152.6875 C19.58597656 152.914375 20.48445313 153.14125 21.41015625 153.375 C22.26480469 153.58125 23.11945313 153.7875 24 154 C25.19625 154.391875 26.3925 154.78375 27.625 155.1875 C31.59384135 156.14296181 34.93007635 156.14280434 39 156 C39.33 155.34 39.66 154.68 40 154 C34.37140809 149.70559284 29.44741051 147.22329387 22.48046875 145.8359375 C16.89025218 143.9519905 14.5607673 138.93862265 12 134 C12 133.34 12 132.68 12 132 C24.20609982 132.43438078 24.20609982 132.43438078 29 137 C29.80687761 138.43870381 30.5748117 139.8996234 31.3125 141.375 C33.98957251 146.70272655 37.88691909 149.15939949 43 152 C49.05089358 149.11605517 54.25149956 145.76572264 57.5625 139.8125 C59.97592363 135.61105821 62.25399369 134.34470179 67 133 C69.99547893 132.52225216 72.97372648 132.19900665 76 132 C73.26985313 138.47938082 70.75862433 144.11950522 64 147 C62.04663542 147.18903528 60.09213758 147.37686865 58.1328125 147.48828125 C53.69810271 148.55228671 50.34414006 152.03517212 47 155 C48.20858552 156.4238996 48.20858552 156.4238996 51.75 156.3125 C57.18788976 156.27758578 61.9596188 154.68012707 67.08203125 152.97265625 C70 152 70 152 72.29296875 151.625 C74.17618114 151.15543671 74.17618114 151.15543671 74.90625 149.21484375 C75.1021875 148.46332031 75.298125 147.71179688 75.5 146.9375 C76.41749196 143.73131929 77.44504214 141.06397461 79.125 138.1875 C80.9649171 134.73507128 81.26645161 131.89501631 81.4375 128 C81.81082319 121.27169798 83.86559447 117.1420879 88.59375 112.40234375 C92.4604805 109 92.4604805 109 95 109 C95.624 120.68266667 95.624 120.68266667 93.3125 125.5625 C91 128 91 128 88.5 129.875 C85.11060556 132.75598528 83.74819532 135.97317404 82 140 C81.69835937 140.68449219 81.39671875 141.36898437 81.0859375 142.07421875 C80.37594651 143.70985221 79.68580105 145.35407748 79 147 C86.34482791 142.63568197 92.24326182 137.29708183 98 131 C98.59554687 130.35546875 99.19109375 129.7109375 99.8046875 129.046875 C101.42935555 126.26476369 101.13503777 124.54737643 100.75 121.375 C100.56630859 119.78751953 100.56630859 119.78751953 100.37890625 118.16796875 C100.25386719 117.12253906 100.12882813 116.07710938 100 115 C99.94714844 114.08863281 99.89429688 113.17726563 99.83984375 112.23828125 C99.59035139 108.06088349 99.27245246 105.02709367 96.9375 101.5 C94.17561128 97.22612841 94.31451773 92.93232068 95 88 C95.79074635 85.46057457 96.76260199 83.37167953 98 81 C101.57528223 82.19176074 102.40156064 83.64772488 104.140625 86.8984375 C106.5158743 92.7070017 106.35995615 97.30834105 104 103 C103.56634086 108.7459836 104.01532473 114.3381172 105 120 C112.0127531 105.48041066 112.0127531 105.48041066 112 90 C110.5032785 87.23064345 108.70515045 84.66533563 106.9375 82.0625 C106.48439453 81.35931641 106.03128906 80.65613281 105.56445312 79.93164062 C102.4878293 75.39117365 99.51051615 72.79085798 94.76708984 70.07104492 C92.46536811 68.67595605 91.23735812 67.39372553 90 65 C89.26953125 61.984375 89.26953125 61.984375 88.8125 58.75 C88.65394531 57.67234375 88.49539063 56.5946875 88.33203125 55.484375 C88.22246094 54.66453125 88.11289062 53.8446875 88 53 C93.45432101 54.55837743 98.0297937 56.59197007 101.6875 61.0625 C102.92691462 63.83642795 103.56353125 66.30270601 104.25 69.25 C105.77849469 75.33919235 108.84539779 79.39009892 113 84 C112.7310563 69.2649421 112.7310563 69.2649421 107 56 C102.27709469 52.20578512 96.61945248 50.10807429 91 48 C90.34 47.67 89.68 47.34 89 47 C87.08484545 46.8709851 85.16767899 46.77098105 83.25 46.6875 C76.34264576 46.14283407 72.6694713 44.02372234 68.125 38.875 C66 36 66 36 66 34 C79.11681173 33.42693541 79.11681173 33.42693541 84 37 C84.680625 37.928125 85.36125 38.85625 86.0625 39.8125 C89.83463575 44.82944054 96.38034616 46.67973297 102 49 C97.90291226 40.29604862 90.4448126 34.79888771 83 29 C82.03513672 28.21882813 82.03513672 28.21882813 81.05078125 27.421875 C77.93757562 25.01258766 75.109013 23.63725703 71.375 22.5625 C66.71853197 21.12913144 64.64469794 19.20040262 62 15 C60.80757109 12.04547979 59.83975398 9.07227065 59 6 C65.72465004 6.92326138 71.98848826 8.13391159 77 13 C78.53506716 15.53845742 79.75724912 18.05445908 80.89453125 20.79296875 C81.92681536 23.30908893 81.92681536 23.30908893 85 25 C85 25.66 85 26.32 85 27 C85.54140625 27.23460938 86.0828125 27.46921875 86.640625 27.7109375 C89.65591544 29.3583644 92.11184012 31.42653344 94.75 33.625 C95.73484375 34.44226563 96.7196875 35.25953125 97.734375 36.1015625 C98.48203125 36.72804687 99.2296875 37.35453125 100 38 C98.58657725 30.81510103 96.36875982 26.62815106 90.83984375 21.7890625 C88.00627554 19.03370318 87.08636159 17.07732426 86.76953125 13.125 C86.78371094 12.09375 86.79789063 11.0625 86.8125 10 C86.82216797 8.453125 86.82216797 8.453125 86.83203125 6.875 C86.97550208 4.41931318 87.2953959 2.34492245 88 0 C88.66 0 89.32 0 90 0 C90 0.66 90 1.32 90 2 C90.556875 2.226875 91.11375 2.45375 91.6875 2.6875 C95.68438886 4.95600449 98.53966649 7.61899946 100 12 C100.05594043 13.84810597 100.10870948 15.69642949 100.13696289 17.54516602 C100.45453685 31.40028886 105.98043775 42.44289889 112.28344727 54.54711914 C114.22432719 58.290417 115.78074896 61.96278611 117 66 C117.33 66 117.66 66 118 66 C117.85957123 64.35369672 117.71250671 62.70795821 117.5625 61.0625 C117.48128906 60.14597656 117.40007812 59.22945312 117.31640625 58.28515625 C117.23955024 56.03840268 117.23955024 56.03840268 116 55 C115.55874806 47.27809099 117.38348852 42.4530857 122.30859375 36.58203125 C124 35 124 35 126 35 C128.64222259 40.94500082 130.43708509 46.48321832 129 53 C127.5 55.33203125 127.5 55.33203125 125.625 57.6875 C118.59573055 66.82838467 119.84362766 79.81392318 119.39526367 90.90283203 C119.13713276 96.78089069 118.43087687 102.27649253 117 108 C119.71146945 104.47508971 121.19160742 101.83221603 122 97.4375 C122.83769674 93.2699587 123.74583724 90.92874648 127 88 C135.43490305 83 135.43490305 83 140 83 C139.29031813 89.81294592 138.22427129 95.72400147 133.3125 100.75 C130.95841629 102.53287222 129.16142877 103.32690065 126.3125 104.4375 C116.72240525 108.97534177 110.63892664 121.39613662 105.76953125 130.22265625 C102.85067433 134.8039085 99.0228249 138.38766744 95 142 C101.18388369 140.99038634 103.61674742 138.69378196 107.421875 133.77734375 C109 132 109 132 112 131 C114.35261357 130.90488839 116.70796967 130.87013024 119.0625 130.875 C120.93615234 130.87113281 120.93615234 130.87113281 122.84765625 130.8671875 C126 131 126 131 128 132 C126.56394807 135.38818502 124.79533421 137.3186598 122 139.6875 C121.29875 140.28949219 120.5975 140.89148438 119.875 141.51171875 C116.21331413 144.41818191 113.9220437 143.93314966 109.3125 143.6875 C96.9865756 143.42575257 86.79195675 149.41680056 76.30639648 155.23046875 C71.36509176 157.93088025 66.4824084 159.76162069 61 161 C65.91598803 161.96391922 68.45082215 161.88624447 73 160 C81.02613028 159.06361813 85.7795256 162.1257114 92.265625 166.54296875 C92.83796875 167.02378906 93.4103125 167.50460937 94 168 C94 168.66 94 169.32 94 170 C87.25805758 172.53898683 81.07368762 174.15489822 74 172 C72.015625 170.65625 72.015625 170.65625 70.125 169.0625 C60.76483753 161.36390483 44.50037813 163.28693999 33 164 C27.11667884 164.6175862 21.23427491 165.43403202 16.8125 169.625 C12.78366348 173.02712862 9.17934495 173.29445256 4 173 C0.55892334 172.25458966 -2.70686899 171.24017912 -6 170 C-4.85601085 166.56803255 -3.97505774 165.95251462 -1.125 163.875 C-0.42632812 163.35679687 0.27234375 162.83859375 0.9921875 162.3046875 C4.96233428 159.72486449 8.37353027 159.76867651 13 160 C14.155 160.350625 15.31 160.70125 16.5 161.0625 C20.40839405 162.10939126 23.07024725 161.80199036 27 161 C26.30777344 160.8040625 25.61554688 160.608125 24.90234375 160.40625 C18.73934852 158.52243591 13.22942288 156.18837998 7.625 153.0625 C-3.03645333 147.20360124 -12.54492067 143.2599778 -24.94140625 144.01953125 C-28.13792421 143.99911926 -30.1437145 143.37761256 -33 142 C-33 141.34 -33 140.68 -33 140 C-33.99 139.67 -34.98 139.34 -36 139 C-37.38671875 137.37109375 -37.38671875 137.37109375 -38.6875 135.4375 C-39.12449219 134.79683594 -39.56148438 134.15617188 -40.01171875 133.49609375 C-40.50091797 132.75552734 -40.50091797 132.75552734 -41 132 C-34.53405429 130.55013152 -27.97287438 130.00904187 -21.625 132.125 C-19 134 -19 134 -16.5625 137 C-13.49323718 140.5932833 -11.3782542 141.45473381 -7 143 C-7 142.34 -7 141.68 -7 141 C-8.32 140.34 -9.64 139.68 -11 139 C-11 138.34 -11 137.68 -11 137 C-11.99 136.67 -12.98 136.34 -14 136 C-15.76171875 133.4453125 -15.76171875 133.4453125 -17.6875 130.125 C-21.43909547 123.79938104 -25.5668158 117.87227885 -30 112 C-30.41636719 111.38125 -30.83273437 110.7625 -31.26171875 110.125 C-34.32573626 105.82462455 -37.87134369 104.77290497 -42.625 103.046875 C-46.45341901 101.3593482 -47.800805 99.57369188 -50 96 C-51.59655243 91.70029002 -52.08710276 87.56893564 -52 83 C-40.16995008 86.52208141 -40.16995008 86.52208141 -36.984375 91.0234375 C-35.20178784 94.60275934 -34.03775199 98.37160399 -32.89453125 102.1953125 C-32.11684779 104.63363879 -31.21788871 106.75736792 -30 109 C-29.34 109 -28.68 109 -28 109 C-28.20496094 108.43796875 -28.40992188 107.8759375 -28.62109375 107.296875 C-30.66472678 100.92152219 -31.28056744 94.95096548 -31.5 88.3125 C-31.86797965 70.83281314 -31.86797965 70.83281314 -39.7578125 55.84765625 C-42.21268789 52.19622211 -41.67468211 48.18302907 -41 44 C-40.19025996 40.91200833 -39.20001931 37.95719045 -38 35 C-36.31002677 36.64302953 -34.64783606 38.31471312 -33 40 C-32.236875 40.721875 -31.47375 41.44375 -30.6875 42.1875 C-28.20145861 46.33090231 -28.51171425 50.27723617 -29 55 C-29.33 55.99 -29.66 56.98 -30 58 C-30.06740865 59.56118428 -30.08514456 61.1250252 -30.0625 62.6875 C-30.05347656 63.49574219 -30.04445313 64.30398437 -30.03515625 65.13671875 C-30.02355469 65.75160156 -30.01195312 66.36648437 -30 67 C-29.731875 66.30777344 -29.46375 65.61554688 -29.1875 64.90234375 C-26.77312325 58.87434391 -24.07425463 53.17297817 -20.9375 47.5 C-15.44273561 37.38184244 -12.4119821 28.93773773 -13.15234375 17.2265625 C-12.87547072 11.36253366 -10.02960656 7.61767219 -5.9375 3.625 C-5.24527344 2.93664062 -4.55304688 2.24828125 -3.83984375 1.5390625 C-2 0 -2 0 0 0 Z " fill="#DB7A48" transform="translate(324,92)"/>
<path d="M0 0 C1.08087891 -0.01740234 1.08087891 -0.01740234 2.18359375 -0.03515625 C10.65147475 0.01078162 17.36387789 3.62479752 23.5 9.375 C30.27770374 18.06050183 30.63570669 27.70037567 29.5 38.375 C27.2271151 46.78679831 21.62676315 52.41657674 14.21875 56.69140625 C6.84871512 60.1251725 -1.16137158 60.75878559 -9.046875 58.71484375 C-18.23852949 55.05402963 -24.61770846 48.38924775 -28.5 39.375 C-30.97119636 31.59233613 -30.41450876 23.34720856 -27 16 C-20.94352339 5.21234638 -12.28738369 -0.19782908 0 0 Z " fill="#31302F" transform="translate(578.5,314.625)"/>
<path d="M0 0 C5.96250449 4.34789979 9.22599319 9.87535975 11 17 C11.495 21.95 11.495 21.95 12 27 C-5.49 27 -22.98 27 -41 27 C-37.456753 39.41095784 -37.456753 39.41095784 -28 47 C-21.26307432 48.73300814 -12.63245747 49.41402678 -6.0625 46.8125 C-0.13268477 43.32385586 -0.13268477 43.32385586 4 38 C5.32 38.33 6.64 38.66 8 39 C8 43.85783464 6.964993 44.88225891 3.8515625 48.3203125 C-3.25317799 54.76554122 -11.39711243 55.30594409 -20.59375 55.2109375 C-24.73857848 54.95426234 -27.41799387 54.10706243 -31 52 C-31.72703125 51.60941406 -32.4540625 51.21882813 -33.203125 50.81640625 C-40.34804227 46.64065162 -44.39351591 40.81945227 -47 33 C-47.7773318 22.48690594 -46.88827424 14.33644691 -41.3125 5.25 C-30.49030581 -5.27970245 -13.26307897 -8.26184402 0 0 Z " fill="#E0874B" transform="translate(435,319)"/>
<path d="M0 0 C5.505613 3.36142018 9.35256715 8.26959703 11.296875 14.40234375 C12.19183694 22.43618811 11.70767534 29.50414126 7.296875 36.40234375 C3.78319251 40.79444686 -0.29483647 43.83545642 -5.703125 45.40234375 C-13.24509721 46.18615149 -20.02875341 46.21627037 -26.703125 42.40234375 C-26.703125 41.74234375 -26.703125 41.08234375 -26.703125 40.40234375 C-27.280625 40.19609375 -27.858125 39.98984375 -28.453125 39.77734375 C-32.35314664 37.39399719 -34.10094397 33.72714202 -35.953125 29.65234375 C-37.93094254 21.08180107 -36.82760631 14.89200918 -32.625 7.1171875 C-24.95134238 -3.72263373 -11.57218312 -5.17799913 0 0 Z " fill="#222121" transform="translate(250.703125,322.59765625)"/>
<path d="M0 0 C4.97055267 3.13805461 9.04939848 7.13807473 11.8125 12.375 C11.3175 13.86 11.3175 13.86 10.8125 15.375 C8.75 16.0625 8.75 16.0625 6.8125 16.375 C6.255625 15.69953125 5.69875 15.0240625 5.125 14.328125 C-1.94581186 6.06291924 -7.62163607 1.99298188 -18.53515625 1.1015625 C-29.65370627 0.79758532 -38.76491321 2.76307001 -47.1875 10.375 C-49.18094438 12.94029384 -49.18094438 12.94029384 -50.875 15.75 C-51.45636719 16.66523438 -52.03773438 17.58046875 -52.63671875 18.5234375 C-57.22676797 26.96357838 -57.49041341 36.31986611 -55.125 45.5625 C-51.99158324 54.48403384 -46.94789463 60.6285239 -38.71484375 65.21875 C-29.89042346 69.25588819 -19.84690743 69.91107879 -10.359375 67.72265625 C-3.31055933 64.85137294 2.42924148 59.50618369 6.8125 53.375 C8.4625 54.035 10.1125 54.695 11.8125 55.375 C8.98601107 63.44868371 3.08034289 67.98830439 -4.375 71.8125 C-14.45844931 76.66259947 -26.36082445 77.05136376 -36.9453125 73.35546875 C-40.64632468 71.73708189 -43.91894803 69.73797913 -47.1875 67.375 C-48.21875 66.6325 -49.25 65.89 -50.3125 65.125 C-58.61365653 57.18476331 -63.16721439 46.86486119 -63.5 35.375 C-63.37639637 25.18456757 -59.99998995 15.04267486 -53.1875 7.375 C-37.84532243 -6.84275087 -18.6309308 -10.07077341 0 0 Z " fill="#D75440" transform="translate(190.1875,298.625)"/>
<path d="M0 0 C1.08087891 -0.01740234 1.08087891 -0.01740234 2.18359375 -0.03515625 C10.65147475 0.01078162 17.36387789 3.62479752 23.5 9.375 C30.27770374 18.06050183 30.63570669 27.70037567 29.5 38.375 C27.2271151 46.78679831 21.62676315 52.41657674 14.21875 56.69140625 C6.84871512 60.1251725 -1.16137158 60.75878559 -9.046875 58.71484375 C-18.23852949 55.05402963 -24.61770846 48.38924775 -28.5 39.375 C-30.97119636 31.59233613 -30.41450876 23.34720856 -27 16 C-20.94352339 5.21234638 -12.28738369 -0.19782908 0 0 Z M-19.5 14.375 C-23.65280885 21.2271346 -24.57504154 28.50222106 -23.5 36.375 C-21.49834012 42.85095843 -17.50909118 47.3200109 -11.9375 51.125 C-5.79782578 54.27355088 1.96893517 54.43086281 8.62890625 52.87890625 C15.84130836 50.02298864 20.27311282 45.18731739 23.5 38.375 C25.44947119 30.73957115 25.26577884 23.35144287 21.5 16.375 C19.20817728 13.58302268 19.20817728 13.58302268 16.5 11.375 C15.695625 10.653125 14.89125 9.93125 14.0625 9.1875 C3.29830891 1.57380386 -11.1856631 4.64064021 -19.5 14.375 Z " fill="#E4A652" transform="translate(578.5,314.625)"/>
<path d="M0 0 C1.00353516 -0.01546875 1.00353516 -0.01546875 2.02734375 -0.03125 C10.17339502 0.11335446 17.13236618 3.83436335 22.875 9.4375 C29.27923031 18.33688498 30.70920584 25.52132072 29.875 36.4375 C27.93850787 44.32345591 22.82555964 50.72076617 16.2109375 55.26953125 C8.82506958 59.43017189 2.27519456 60.69914668 -6.125 59.4375 C-9.41631407 58.49355712 -12.18922953 57.18511975 -15.125 55.4375 C-15.75019531 55.09847656 -16.37539062 54.75945312 -17.01953125 54.41015625 C-23.19782618 50.6278014 -26.87005428 44.20233715 -29.125 37.4375 C-29.86714198 27.40033383 -29.7531407 18.44468037 -23.39453125 10.19140625 C-16.53324466 2.72753161 -10.08628481 0.12954861 0 0 Z M-19.125 14.4375 C-23.29753735 20.90378026 -25.46341624 26.72625784 -24.125 34.4375 C-22.4617785 39.7395462 -20.01547671 44.41734074 -16.125 48.4375 C-15.465 48.4375 -14.805 48.4375 -14.125 48.4375 C-14.125 49.0975 -14.125 49.7575 -14.125 50.4375 C-7.45062841 54.25142662 -0.66697221 54.22130774 6.875 53.4375 C12.99258034 51.66511691 17.63137604 47.94638076 21.06640625 42.57421875 C24.73720116 35.57796503 25.31178476 27.65753456 23.21484375 20.0390625 C20.42226068 13.7285501 15.3881226 9.32186754 9.125 6.5625 C-1.71182284 3.05523369 -11.94578184 5.51198553 -19.125 14.4375 Z " fill="#D86343" transform="translate(238.125,314.5625)"/>
<path d="M0 0 C5.32798467 2.76609657 9.60969758 7.23715596 12.9921875 12.1640625 C12.9921875 12.8240625 12.9921875 13.4840625 12.9921875 14.1640625 C11.3421875 14.8240625 9.6921875 15.4840625 7.9921875 16.1640625 C7.7446875 15.3803125 7.4971875 14.5965625 7.2421875 13.7890625 C5.7706206 10.69877202 5.1011385 10.373099 1.9921875 9.1640625 C1.0228125 8.6484375 0.0534375 8.1328125 -0.9453125 7.6015625 C-7.82544226 4.37211384 -15.53137022 4.06318911 -22.7578125 6.3515625 C-28.98989742 9.82714832 -32.68151482 12.90512282 -35.30859375 19.578125 C-37.46213431 27.54261579 -36.69155793 34.79089751 -32.63671875 41.96484375 C-29.20229477 46.60172792 -24.7710435 50.16313573 -19.0078125 51.1640625 C-10.24812028 51.99492762 -3.30343262 51.34521306 3.9921875 46.1640625 C6.5697847 43.57961172 6.5697847 43.57961172 7.9921875 41.1640625 C9.3121875 41.4940625 10.6321875 41.8240625 11.9921875 42.1640625 C11.9921875 46.97045705 11.27691154 47.79511477 7.9921875 51.1640625 C-0.71673748 56.97001249 -9.52349524 59.36852715 -20.0078125 58.1640625 C-28.72308178 56.07835703 -34.6221963 51.26419948 -39.3203125 43.7265625 C-43.60117359 34.68918909 -44.19350421 26.13892823 -41.0390625 16.6171875 C-37.77792206 8.85962614 -32.28074149 4.16763674 -25.0078125 0.1640625 C-17.63197079 -2.2945514 -7.45511977 -2.07194238 0 0 Z " fill="#DF914E" transform="translate(495.0078125,315.8359375)"/>
<path d="M0 0 C1.65 0 3.3 0 5 0 C5.33 2.64 5.66 5.28 6 8 C6.721875 7.236875 7.44375 6.47375 8.1875 5.6875 C13.81175206 0.3132147 17.68926192 -0.4491081 25.39794922 -0.34863281 C30.40201465 -0.19903811 33.74833631 0.4120308 38 3 C38.886875 3.53625 39.77375 4.0725 40.6875 4.625 C45.81869958 9.89488065 47.45577887 16.21268472 47.45318604 23.42323303 C47.43254089 24.29548019 47.41189575 25.16772736 47.390625 26.06640625 C47.38496521 26.98590561 47.37930542 27.90540497 47.37347412 28.85276794 C47.35128849 31.75656764 47.30112758 34.65908057 47.25 37.5625 C47.2299119 39.54490391 47.2116652 41.52732738 47.1953125 43.50976562 C47.15148241 48.34033086 47.08258128 53.16994816 47 58 C45.02 58 43.04 58 41 58 C40.99589111 56.76958984 40.99178223 55.53917969 40.98754883 54.27148438 C40.96567337 49.67894375 40.91129673 45.08724966 40.84741211 40.49511719 C40.82430529 38.51277824 40.80985366 36.5303178 40.80444336 34.54785156 C40.79510013 31.68738738 40.75399319 28.82881482 40.70703125 25.96875 C40.7109639 25.09134155 40.71489655 24.21393311 40.71894836 23.30993652 C40.57438018 17.12578342 39.06671668 12.74421404 35 8 C29.98300007 5.1331429 23.63609163 5.24852112 18 6 C13.40909884 7.57358675 10.07381463 10.12996322 7.82421875 14.46875 C4.54828011 22.27889814 5.31597546 31.24115332 5.25 39.5625 C5.22180488 41.35224201 5.19187257 43.14195755 5.16015625 44.93164062 C5.08670994 49.28771264 5.03687932 53.64347121 5 58 C3.35 58 1.7 58 0 58 C0 38.86 0 19.72 0 0 Z " fill="#DC7046" transform="translate(276,315)"/>
<path d="M0 0 C1.65 0 3.3 0 5 0 C5.33 2.31 5.66 4.62 6 7 C6.83144531 6.36771484 6.83144531 6.36771484 7.6796875 5.72265625 C8.76636719 4.90087891 8.76636719 4.90087891 9.875 4.0625 C10.59429687 3.51722656 11.31359375 2.97195313 12.0546875 2.41015625 C17.68578866 -1.67182672 26.29474722 -0.8837869 33 0 C38.20010777 1.90579866 41.61316787 4.93516395 44.5 9.625 C46.29230612 13.65768876 47.12709259 16.82200206 47.11352539 21.21777344 C47.11344986 22.03832214 47.11337433 22.85887085 47.11329651 23.70428467 C47.10813522 24.58046448 47.10297394 25.45664429 47.09765625 26.359375 C47.0962413 27.26375305 47.09482635 28.1681311 47.09336853 29.09991455 C47.08777911 31.98331027 47.07522853 34.86662782 47.0625 37.75 C47.05748363 39.70703013 47.05292096 41.66406147 47.04882812 43.62109375 C47.03781313 48.41409253 47.02055574 53.20703302 47 58 C45.02 58 43.04 58 41 58 C40.9906543 56.79988281 40.98130859 55.59976563 40.97167969 54.36328125 C40.9316088 49.88260683 40.86580316 45.40260671 40.79248047 40.92236328 C40.76436965 38.98853257 40.74310621 37.05458907 40.72900391 35.12060547 C40.70743679 32.32982045 40.66071744 29.54037741 40.609375 26.75 C40.60814636 25.89446533 40.60691772 25.03893066 40.60565186 24.1574707 C40.46638314 18.3642335 39.30772506 13.82889236 36 9 C30.83222162 4.8657773 24.31272035 5.3669937 18 6 C12.48100718 7.87251542 9.5675854 10.96125795 6.91650391 16.1003418 C5.65495574 20.09165975 5.64407708 23.85570806 5.5859375 28.01953125 C5.56657135 28.87810226 5.5472052 29.73667328 5.5272522 30.6212616 C5.46768444 33.35157474 5.42116266 36.08193057 5.375 38.8125 C5.33679921 40.66863773 5.29774625 42.52475812 5.2578125 44.38085938 C5.16200173 48.92043144 5.07788679 53.46008646 5 58 C3.35 58 1.7 58 0 58 C0 38.86 0 19.72 0 0 Z " fill="#DF7C49" transform="translate(333,315)"/>
<path d="M0 0 C5.84367886 3.47647431 10.04483526 7.32414144 12 14 C12 15.65 12 17.3 12 19 C-3.18 19 -18.36 19 -34 19 C-32.88912437 10.11299495 -31.35266799 7.65298603 -25 2 C-17.92454842 -3.36411268 -7.94707606 -3.88523719 0 0 Z " fill="#2B2A2A" transform="translate(428,322)"/>
<path d="M0 0 C1.98 0 3.96 0 6 0 C6 5.61 6 11.22 6 17 C11.28 17 16.56 17 22 17 C22 18.65 22 20.3 22 22 C16.72 22 11.44 22 6 22 C6.06894972 27.60549826 6.15695228 33.21025579 6.26245117 38.81518555 C6.29565962 40.72102631 6.32370425 42.62696446 6.34643555 44.53295898 C6.38005668 47.27630015 6.43237595 50.01875222 6.48828125 52.76171875 C6.49467117 53.61086349 6.5010611 54.46000824 6.50764465 55.33488464 C6.62385882 60.03444824 6.98498722 63.16632587 10 67 C13.50221796 69.59423553 17.7838198 69.57838198 22 70 C22 71.65 22 73.3 22 75 C12.35870243 75.61759201 12.35870243 75.61759201 7.5625 73.4375 C3.17789244 69.26677573 0.81336547 65.38249117 0.54589844 59.34985352 C0.54652417 57.60940925 0.56867352 55.86887464 0.609375 54.12890625 C0.61503479 53.206577 0.62069458 52.28424774 0.62652588 51.33396912 C0.64878363 48.40960142 0.69895953 45.48649269 0.75 42.5625 C0.77007873 40.57098133 0.78832709 38.57944331 0.8046875 36.58789062 C0.8486136 31.72478083 0.91756687 26.86260332 1 22 C-1.97 22 -4.94 22 -8 22 C-8 20.35 -8 18.7 -8 17 C-5.36 17 -2.72 17 0 17 C0 11.39 0 5.78 0 0 Z " fill="#E59D51" transform="translate(521,298)"/>
<path d="M0 0 C1.76104678 15.29776779 1.76104678 15.29776779 -2 21 C-3.47269851 22.12053148 -4.94641579 23.23999061 -6.4375 24.3359375 C-9.90297773 28.02667129 -11.30787975 33.30548939 -13 38 C-13.99 38 -14.98 38 -16 38 C-15.7834375 37.44054687 -15.566875 36.88109375 -15.34375 36.3046875 C-13.08156439 29.79043079 -12.81451212 24.16606848 -13.1875 17.296875 C-12.85201795 11.39798234 -10.06427845 7.65150159 -5.9375 3.625 C-5.24527344 2.93664062 -4.55304688 2.24828125 -3.83984375 1.5390625 C-2 0 -2 0 0 0 Z " fill="#D96544" transform="translate(324,92)"/>
<path d="M0 0 C0.66 0 1.32 0 2 0 C2 0.66 2 1.32 2 2 C2.8353125 2.3403125 2.8353125 2.3403125 3.6875 2.6875 C7.68438886 4.95600449 10.53966649 7.61899946 12 12 C12.20563808 14.75326537 12.37276138 17.49316334 12.5 20.25 C12.75033784 25.56272523 13.16579777 30.74452593 14 36 C13.34 36 12.68 36 12 36 C11.79246094 35.43152344 11.58492188 34.86304688 11.37109375 34.27734375 C9.2442615 28.94691481 6.88918373 25.41074107 2.5859375 21.60546875 C-0.0591498 18.92780648 -0.92873996 16.88893883 -1.23046875 13.125 C-1.21628906 12.09375 -1.20210938 11.0625 -1.1875 10 C-1.18105469 8.96875 -1.17460937 7.9375 -1.16796875 6.875 C-1.02449792 4.41931318 -0.7046041 2.34492245 0 0 Z " fill="#E0954F" transform="translate(412,92)"/>
<path d="M0 0 C1.68997323 1.64302953 3.35216394 3.31471312 5 5 C5.763125 5.721875 6.52625 6.44375 7.3125 7.1875 C9.79854139 11.33090231 9.48828575 15.27723617 9 20 C8.67 20.99 8.34 21.98 8 23 C7.90752619 24.47686111 7.87000929 25.95775501 7.875 27.4375 C7.87242187 28.19933594 7.86984375 28.96117187 7.8671875 29.74609375 C7.99723985 31.95315859 8.39143801 33.87969276 9 36 C7.02 36.495 7.02 36.495 5 37 C4.92523438 36.3709375 4.85046875 35.741875 4.7734375 35.09375 C4.01459116 30.15380912 3.19110235 26.81664611 -0.125 23 C-3.26111142 19.18912622 -3.70490597 16.41767566 -3.41015625 11.54296875 C-2.75965731 7.50987533 -1.53309025 3.77797241 0 0 Z " fill="#D85741" transform="translate(286,127)"/>
<path d="M0 0 C2.64490873 5.95104463 4.42849747 11.47817019 3 18 C1.40647045 20.74914257 -0.34196554 23.13497265 -2.37109375 25.578125 C-4.27316767 28.40614857 -4.65531395 30.64052466 -5 34 C-6.485 34.495 -6.485 34.495 -8 35 C-7.96519531 34.12988281 -7.96519531 34.12988281 -7.9296875 33.2421875 C-7.80592513 28.08629029 -7.80592513 28.08629029 -9.0625 23.125 C-10.52129991 18.26233364 -10.29526714 13.89772889 -9 9 C-3.81268012 0 -3.81268012 0 0 0 Z " fill="#E4A352" transform="translate(450,127)"/>
<path d="M0 0 C1.98 0 3.96 0 6 0 C14 18.68774704 14 18.68774704 14 24 C13.01 24 12.02 24 11 24 C10.34 22.02 9.68 20.04 9 18 C5.04 17.67 1.08 17.34 -3 17 C-3.66 19.31 -4.32 21.62 -5 24 C-5.99 24 -6.98 24 -8 24 C-6.16243766 15.5741044 -3.52877474 7.86651761 0 0 Z " fill="#D48D4B" transform="translate(463,395)"/>
<path d="M0 0 C1.98 0 3.96 0 6 0 C8.64 7.26 11.28 14.52 14 22 C13.01 22.33 12.02 22.66 11 23 C10.34 21.02 9.68 19.04 9 17 C4.92344518 17.01264048 0.99259074 17.1362967 -3 18 C-5.39248595 20.85602535 -5.39248595 20.85602535 -6 24 C-6.66 24 -7.32 24 -8 24 C-4.25531915 4.25531915 -4.25531915 4.25531915 0 0 Z " fill="#D38249" transform="translate(412,395)"/>
<path d="M0 0 C0.73154297 0.19078125 1.46308594 0.3815625 2.21679688 0.578125 C4.00069666 1.04450403 5.78189845 1.52118278 7.5625 2 C7.5625 2.33 7.5625 2.66 7.5625 3 C6.98242188 3.08636719 6.40234375 3.17273438 5.8046875 3.26171875 C1.44773216 4.04539554 -0.95778269 4.5815232 -4.375 7.5625 C-8.59608617 10.92214002 -12.1225241 11.30216335 -17.4375 11 C-20.87857666 10.25458966 -24.14436899 9.24017912 -27.4375 8 C-26.29351085 4.56803255 -25.41255774 3.95251462 -22.5625 1.875 C-21.86382812 1.35679687 -21.16515625 0.83859375 -20.4453125 0.3046875 C-14.02814718 -3.86522148 -6.86756208 -1.85983383 0 0 Z " fill="#DA6C45" transform="translate(345.4375,254)"/>
<path d="M0 0 C3.12977998 2.23555713 5.17635315 4.92406662 7.625 7.875 C10.2764482 9.27319512 10.2764482 9.27319512 12.625 9.875 C12.625 10.865 12.625 11.855 12.625 12.875 C11.7175 12.71 10.81 12.545 9.875 12.375 C5.40951714 11.70973419 0.99375519 11.88900145 -3.5078125 12.03515625 C-6.53377654 11.86613101 -8.64495993 11.15001871 -11.375 9.875 C-11.375 9.215 -11.375 8.555 -11.375 7.875 C-12.365 7.545 -13.355 7.215 -14.375 6.875 C-15.76171875 5.24609375 -15.76171875 5.24609375 -17.0625 3.3125 C-17.49949219 2.67183594 -17.93648438 2.03117188 -18.38671875 1.37109375 C-18.87591797 0.63052734 -18.87591797 0.63052734 -19.375 -0.125 C-12.90905429 -1.57486848 -6.34787438 -2.11595813 0 0 Z " fill="#D85B41" transform="translate(302.375,224.125)"/>
<path d="M0 0 C2.8816166 1.7258603 5.67585064 3.52498263 8.25 5.6875 C8.25 6.3475 8.25 7.0075 8.25 7.6875 C1.4967734 10.2307364 -4.66516691 11.82566333 -11.75 9.6875 C-14.05376019 8.30680841 -16.03239258 6.82220707 -18.05859375 5.0625 C-19.81430641 3.46992681 -19.81430641 3.46992681 -22.75 2.6875 C-22.75 2.0275 -22.75 1.3675 -22.75 0.6875 C-14.6029912 -2.11720795 -8.00460912 -4.32222776 0 0 Z " fill="#E08E4D" transform="translate(409.75,254.3125)"/>
<path d="M0 0 C-0.70759835 6.7929442 -1.79176065 12.68660639 -6.625 17.75 C-10.55039523 20.65952661 -16.02117491 24 -21 24 C-20.71125 23.360625 -20.4225 22.72125 -20.125 22.0625 C-19.17220876 19.46879052 -18.6290323 17.19567276 -18.125 14.5 C-17.2048225 10.35233424 -16.24388411 7.9194957 -13 5 C-4.56509695 0 -4.56509695 0 0 0 Z " fill="#E7A853" transform="translate(464,175)"/>
<path d="M0 0 C1.32 0 2.64 0 4 0 C6.31 4.29 8.62 8.58 11 13 C13.20132619 10.06489842 14.95504171 7.4339774 16.6875 4.25 C17.12449219 3.45078125 17.56148437 2.6515625 18.01171875 1.828125 C18.33785156 1.22484375 18.66398438 0.6215625 19 0 C20.32 0 21.64 0 23 0 C23 7.92 23 15.84 23 24 C22.01 24 21.02 24 20 24 C19.67 18.39 19.34 12.78 19 7 C17.02 10.63 15.04 14.26 13 18 C9 17 9 17 7.515625 14.93359375 C6.34375 12.62239583 5.171875 10.31119792 4 8 C3.67 13.28 3.34 18.56 3 24 C2.01 24 1.02 24 0 24 C0 16.08 0 8.16 0 0 Z " fill="#D39B4F" transform="translate(518,395)"/>
<path d="M0 0 C4.56781622 4.38009775 5.21929132 8.48108403 5.4609375 14.62109375 C5 17 5 17 3.0546875 19.69921875 C0.41206676 23.94449351 0.12541941 27.47108398 -0.25 32.375 C-0.32734375 33.20644531 -0.4046875 34.03789062 -0.484375 34.89453125 C-0.67139299 36.92835185 -0.83780686 38.96404927 -1 41 C-3.39314766 38.49438065 -3.98379237 37.23856501 -4.22265625 33.72265625 C-4.16980469 32.51480469 -4.11695313 31.30695313 -4.0625 30.0625 C-3.86652619 25.36415359 -4.09238231 22.28314161 -6 18 C-7.06331463 12.39714983 -6.16258072 8.67391217 -3 3.9375 C-2.01980088 2.61014702 -1.02630025 1.29203871 0 0 Z " fill="#D46042" transform="translate(312,173)"/>
<path d="M0 0 C3.57528223 1.19176074 4.40156064 2.64772488 6.140625 5.8984375 C7.60569973 9.48121117 8.20479845 13.13613597 8 17 C7.68546875 17.72316406 7.3709375 18.44632813 7.046875 19.19140625 C5.55532349 23.19299406 5.5356015 27.0732895 5.375 31.3125 C5.33632813 32.14845703 5.29765625 32.98441406 5.2578125 33.84570312 C5.16404841 35.89679259 5.08095755 37.94836515 5 40 C2.24215213 37.24215213 2.52544494 35.15758862 2.125 31.3125 C1.43571425 25.44534037 1.43571425 25.44534037 -1.125 20.25 C-3.70469876 15.77852216 -3.7020071 12.05122347 -3 7 C-2.20925365 4.46057457 -1.23739801 2.37167953 0 0 Z " fill="#DE964F" transform="translate(422,173)"/>
<path d="M0 0 C0.66 0.33 1.32 0.66 2 1 C0.56394807 4.38818502 -1.20466579 6.3186598 -4 8.6875 C-4.70125 9.28949219 -5.4025 9.89148438 -6.125 10.51171875 C-10.1895724 13.73797309 -14.00286846 13.21763052 -19 13 C-21.0079077 12.71818839 -23.0137698 12.40743184 -25 12 C-23.55650631 10.27872058 -22.10138172 8.57371795 -20.61328125 6.890625 C-18.84866818 4.89185258 -18.84866818 4.89185258 -17 2.0625 C-11.93361454 -1.42064 -5.96069489 -0.52883225 0 0 Z " fill="#E8A252" transform="translate(450,223)"/>
<path d="M0 0 C1.17046875 0.01804687 2.3409375 0.03609375 3.546875 0.0546875 C4.88492188 0.08949219 4.88492188 0.08949219 6.25 0.125 C0.30285406 10.15450882 0.30285406 10.15450882 -5.75 12.125 C-7.39208237 12.26384274 -9.03983994 12.34453479 -10.6875 12.375 C-18.06076821 12.88871131 -24.15339515 15.97596381 -30.75 19.125 C-30.671875 17.3359375 -30.671875 17.3359375 -29.75 15.125 C-26.92352703 13.50458748 -24.10543367 12.22244676 -21.1171875 10.9453125 C-16.3074045 8.75351265 -14.02390969 6.25636223 -10.75 2.125 C-7.33144418 -0.34709615 -4.13356786 -0.08267136 0 0 Z " fill="#DD6D46" transform="translate(339.75,125.875)"/>
<path d="M0 0 C5.45432101 1.55837743 10.0297937 3.59197007 13.6875 8.0625 C14.93537414 10.85536116 15.64182324 13.41393805 16.375 16.375 C17.69166059 21.57827365 19.60692308 24.87328482 23 29 C22.01 29.33 21.02 29.66 20 30 C19.5875 29.40832031 19.175 28.81664062 18.75 28.20703125 C15.22388764 23.38223911 12.1205154 19.94690904 6.796875 17.16796875 C3.46719835 15.00367892 2.20035469 12.82713273 1.26953125 8.984375 C1.11871094 7.91703125 0.96789062 6.8496875 0.8125 5.75 C0.57466797 4.13351563 0.57466797 4.13351563 0.33203125 2.484375 C0.22246094 1.66453125 0.11289062 0.8446875 0 0 Z " fill="#E1964F" transform="translate(412,145)"/>
<path d="M0 0 C0.41584607 6.7921525 -0.83298693 11.48157941 -5.3125 16.6875 C-8 19 -8 19 -11 20.875 C-13.74673828 22.82060628 -14.87763413 24.04335374 -16.6875 26.75 C-17.450625 27.8225 -18.21375 28.895 -19 30 C-19.99 30 -20.98 30 -22 30 C-20.99661707 27.07346646 -20.10555131 25.11544675 -18 22.8125 C-15.92642607 19.89653666 -15.60344597 18.50394677 -15.0625 15.0625 C-14.20284319 10.11763644 -12.79201914 7.46227834 -9 4 C-2.375 0 -2.375 0 0 0 Z " fill="#D76343" transform="translate(323,145)"/>
<path d="M0 0 C1.51400391 0.01740234 1.51400391 0.01740234 3.05859375 0.03515625 C4.07050781 0.04417969 5.08242188 0.05320312 6.125 0.0625 C7.29869141 0.07990234 7.29869141 0.07990234 8.49609375 0.09765625 C8.52293687 2.91021906 8.54285563 5.72252866 8.55859375 8.53515625 C8.56697266 9.33759766 8.57535156 10.14003906 8.58398438 10.96679688 C8.59260805 13.01060846 8.54837525 15.05449527 8.49609375 17.09765625 C6.90715303 18.68659697 5.24807951 18.26764036 3.05859375 18.28515625 C1.85396484 18.30642578 1.85396484 18.30642578 0.625 18.328125 C-1.50390625 18.09765625 -1.50390625 18.09765625 -3.50390625 16.09765625 C-3.67554356 13.53473308 -3.73655183 11.09419768 -3.69140625 8.53515625 C-3.69076172 7.83712891 -3.69011719 7.13910156 -3.68945312 6.41992188 C-3.63464858 0.14175696 -3.63464858 0.14175696 0 0 Z " fill="#262322" transform="translate(295.50390625,397.90234375)"/>
<path d="M0 0 C2.83203125 0.03255208 5.6640625 0.06510417 8.49609375 0.09765625 C8.49609375 5.70765625 8.49609375 11.31765625 8.49609375 17.09765625 C6.2671838 18.21211123 4.96554269 18.26245911 2.49609375 18.28515625 C1.44421875 18.30642578 1.44421875 18.30642578 0.37109375 18.328125 C-1.50390625 18.09765625 -1.50390625 18.09765625 -3.50390625 16.09765625 C-3.67554356 13.53473308 -3.73655183 11.09419768 -3.69140625 8.53515625 C-3.69076172 7.83712891 -3.69011719 7.13910156 -3.68945312 6.41992188 C-3.63464858 0.14175696 -3.63464858 0.14175696 0 0 Z " fill="#1E1C1C" transform="translate(181.50390625,397.90234375)"/>
<path d="M0 0 C13.11681173 -0.57306459 13.11681173 -0.57306459 18 3 C19.15265889 4.47284191 20.30429248 5.94667324 21.43359375 7.4375 C24.61341282 10.60938935 28.93350809 12.21548122 33 14 C32.67 14.99 32.34 15.98 32 17 C31.48953125 16.72285156 30.9790625 16.44570312 30.453125 16.16015625 C25.81198033 13.8478129 22.01383261 12.7532484 16.8125 12.5 C10.90982761 12.16291845 7.68747906 10.80214483 3.53515625 6.47265625 C0 2.46745152 0 2.46745152 0 0 Z " fill="#E18F4D" transform="translate(390,126)"/>
<path d="M0 0 C5 0 5 0 7 1.875 C9.70299061 6.09842282 11.82979468 10.47873891 14 15 C14.33 10.05 14.66 5.1 15 0 C15.99 0 16.98 0 18 0 C18 7.59 18 15.18 18 23 C14 22 14 22 12.62792969 20.23413086 C12.22993164 19.48526611 11.83193359 18.73640137 11.421875 17.96484375 C10.76445312 16.75151367 10.76445312 16.75151367 10.09375 15.51367188 C9.6503125 14.66353516 9.206875 13.81339844 8.75 12.9375 C8.06164062 11.65649414 8.06164062 11.65649414 7.359375 10.34960938 C6.2276566 8.23942611 5.11225718 6.12050558 4 4 C3.67 10.6 3.34 17.2 3 24 C2.01 24 1.02 24 0 24 C0 16.08 0 8.16 0 0 Z " fill="#CB513E" transform="translate(197,395)"/>
<path d="M0 0 C10.1973133 6.02860032 10.1973133 6.02860032 12 12 C12.30323876 14.74178378 12.50660536 17.47773445 12.68359375 20.23046875 C13.13505827 24.18217672 14.42198119 27.36369579 16 31 C15.01 31.33 14.02 31.66 13 32 C12.69707031 31.39671875 12.39414062 30.7934375 12.08203125 30.171875 C9.54277249 25.32775059 7.38618055 22.34734831 3 19 C-1.2152328 13.33123864 -0.26973098 6.73328434 0 0 Z " fill="#DA6744" transform="translate(317,201)"/>
<path d="M0 0 C1.051875 -0.00773437 2.10375 -0.01546875 3.1875 -0.0234375 C6.39308857 0.43068755 7.05802686 0.88058715 9 3.375 C9.38818359 5.3203125 9.38818359 5.3203125 9.3984375 7.5 C9.40423828 8.68335938 9.40423828 8.68335938 9.41015625 9.890625 C9.39855469 10.71046875 9.38695312 11.5303125 9.375 12.375 C9.38660156 13.19484375 9.39820313 14.0146875 9.41015625 14.859375 C9.40628906 15.64828125 9.40242188 16.4371875 9.3984375 17.25 C9.39336182 18.32894531 9.39336182 18.32894531 9.38818359 19.4296875 C8.88862005 21.93316065 7.99576469 22.82565244 6 24.375 C3.44140625 24.80859375 3.44140625 24.80859375 0.5625 24.8125 C-0.38496094 24.83183594 -1.33242188 24.85117187 -2.30859375 24.87109375 C-5 24.375 -5 24.375 -7.3203125 22.8828125 C-9.76536733 19.23228877 -9.54989196 16.10877314 -9.4375 11.8125 C-9.44458984 11.04486328 -9.45167969 10.27722656 -9.45898438 9.48632812 C-9.42484761 6.47441503 -9.37043208 4.01917511 -7.84765625 1.37109375 C-5.17908276 -0.06756638 -3.01592689 -0.02217593 0 0 Z M-6 4.375 C-6.12653198 6.86738569 -6.18519825 9.31970441 -6.1875 11.8125 C-6.19974609 12.50666016 -6.21199219 13.20082031 -6.22460938 13.91601562 C-6.22989842 15.73720901 -6.12169207 17.5578692 -6 19.375 C-4.21630633 21.57662356 -4.21630633 21.57662356 -1.87109375 21.60546875 C-0.66646484 21.58419922 -0.66646484 21.58419922 0.5625 21.5625 C1.77099609 21.55283203 1.77099609 21.55283203 3.00390625 21.54296875 C4.99879885 21.59130912 4.99879885 21.59130912 6 20.375 C6.07325168 17.51232433 6.09238205 14.674281 6.0625 11.8125 C6.05798828 11.00619141 6.05347656 10.19988281 6.04882812 9.36914062 C6.03700518 7.37106244 6.01906914 5.37302217 6 3.375 C4.18757948 3.34812721 2.37504767 3.32866285 0.5625 3.3125 C-0.95150391 3.29509766 -0.95150391 3.29509766 -2.49609375 3.27734375 C-4.94021067 3.08887324 -4.94021067 3.08887324 -6 4.375 Z " fill="#D76B44" transform="translate(298,394.625)"/>
<path d="M0 0 C1.90845703 0.05414063 1.90845703 0.05414063 3.85546875 0.109375 C5.31919922 0.17898438 5.31919922 0.17898438 6.8125 0.25 C6.8125 1.24 6.8125 2.23 6.8125 3.25 C2.5225 3.25 -1.7675 3.25 -6.1875 3.25 C-6.1875 5.56 -6.1875 7.87 -6.1875 10.25 C-2.2275 10.25 1.7325 10.25 5.8125 10.25 C5.8125 11.24 5.8125 12.23 5.8125 13.25 C1.8525 13.25 -2.1075 13.25 -6.1875 13.25 C-5.8575 15.56 -5.5275 17.87 -5.1875 20.25 C-1.2275 20.58 2.7325 20.91 6.8125 21.25 C6.8125 22.24 6.8125 23.23 6.8125 24.25 C4.91867836 24.38592021 3.02200296 24.4824094 1.125 24.5625 C0.06925781 24.62050781 -0.98648438 24.67851562 -2.07421875 24.73828125 C-5.1875 24.25 -5.1875 24.25 -8.05078125 22.203125 C-10.76274406 18.45496433 -10.79683675 16.2750876 -10.6875 11.6875 C-10.6771875 10.38683594 -10.666875 9.08617187 -10.65625 7.74609375 C-9.67625149 0.43693816 -7.0639835 -0.25922875 0 0 Z " fill="#CB984D" transform="translate(554.1875,394.75)"/>
<path d="M0 0 C1.051875 -0.00773437 2.10375 -0.01546875 3.1875 -0.0234375 C6.39399554 0.43081603 7.05576456 0.88174197 9 3.375 C9.61706689 6.34586946 9.46368461 9.34710731 9.4375 12.375 C9.4674707 13.60476563 9.4674707 13.60476563 9.49804688 14.859375 C9.4931951 20.7979507 9.4931951 20.7979507 7.25390625 23.41796875 C4.80787479 24.45657829 3.149148 24.74647076 0.5 24.6875 C-0.2528125 24.68363281 -1.005625 24.67976563 -1.78125 24.67578125 C-4.2757869 24.3376134 -5.89553511 23.75490132 -8 22.375 C-9.23156105 18.68031685 -9.22260483 15.22402154 -9.25 11.375 C-9.270625 10.65054687 -9.29125 9.92609375 -9.3125 9.1796875 C-9.33404619 6.26017824 -9.34041558 3.96489823 -7.859375 1.3984375 C-5.18579782 -0.0731533 -3.03555238 -0.02232024 0 0 Z M-6 4.375 C-6.12653198 6.86738569 -6.18519825 9.31970441 -6.1875 11.8125 C-6.19974609 12.50666016 -6.21199219 13.20082031 -6.22460938 13.91601562 C-6.22989842 15.73720901 -6.12169207 17.5578692 -6 19.375 C-4.24524938 21.54012323 -4.24524938 21.54012323 -2.125 21.60546875 C-1.42375 21.59128906 -0.7225 21.57710938 0 21.5625 C1.051875 21.55283203 1.051875 21.55283203 2.125 21.54296875 C4.09056373 21.48206133 4.09056373 21.48206133 6 20.375 C6 14.765 6 9.155 6 3.375 C-0.26187105 2.70666086 -0.26187105 2.70666086 -6 4.375 Z " fill="#CD4D3D" transform="translate(184,394.625)"/>
<path d="M0 0 C1.17949219 0.01804687 2.35898437 0.03609375 3.57421875 0.0546875 C4.92966797 0.08949219 4.92966797 0.08949219 6.3125 0.125 C5.9825 1.115 5.6525 2.105 5.3125 3.125 C1.3525 3.125 -2.6075 3.125 -6.6875 3.125 C-6.3575 8.735 -6.0275 14.345 -5.6875 20.125 C-2.7175 20.125 0.2525 20.125 3.3125 20.125 C3.6425 17.815 3.9725 15.505 4.3125 13.125 C2.3325 13.125 0.3525 13.125 -1.6875 13.125 C-1.6875 12.135 -1.6875 11.145 -1.6875 10.125 C1.2825 10.125 4.2525 10.125 7.3125 10.125 C7.39364106 11.89507714 7.45175505 13.66622098 7.5 15.4375 C7.55220703 16.91669922 7.55220703 16.91669922 7.60546875 18.42578125 C7.3125 21.125 7.3125 21.125 6.14453125 22.95703125 C3.62510687 24.56323144 1.78261985 24.52395258 -1.1875 24.5 C-2.1465625 24.50773437 -3.105625 24.51546875 -4.09375 24.5234375 C-7.13828027 24.05575363 -7.82603105 23.51369618 -9.6875 21.125 C-10.07568359 19.07202148 -10.07568359 19.07202148 -10.0859375 16.74609375 C-10.08980469 15.90755859 -10.09367187 15.06902344 -10.09765625 14.20507812 C-10.08605469 13.33302734 -10.07445312 12.46097656 -10.0625 11.5625 C-10.07410156 10.68658203 -10.08570313 9.81066406 -10.09765625 8.90820312 C-10.09378906 8.07095703 -10.08992188 7.23371094 -10.0859375 6.37109375 C-10.08255371 5.60466553 -10.07916992 4.8382373 -10.07568359 4.04858398 C-9.06707121 -0.94943926 -4.00236501 -0.07925475 0 0 Z " fill="#CD6F44" transform="translate(342.6875,394.875)"/>
<path d="M0 0 C0.624 11.68266667 0.624 11.68266667 -1.6875 16.5625 C-4.00906428 19.00955425 -6.19047318 21.12698212 -9 23 C-9.99 23 -10.98 23 -12 23 C-12.62234043 12.31648936 -12.62234043 12.31648936 -10.375 7.5625 C-3.36585366 0 -3.36585366 0 0 0 Z " fill="#DE914E" transform="translate(419,201)"/>
<path d="M0 0 C0.99 0 1.98 0 3 0 C3 3.3 3 6.6 3 10 C6.63 10 10.26 10 14 10 C14 6.7 14 3.4 14 0 C14.99 0 15.98 0 17 0 C17 7.59 17 15.18 17 23 C16.01 23 15.02 23 14 23 C14 19.7 14 16.4 14 13 C10.37 13 6.74 13 3 13 C3 16.3 3 19.6 3 23 C2.01 23 1.02 23 0 23 C0 15.41 0 7.82 0 0 Z " fill="#D57847" transform="translate(354,395)"/>
<path d="M0 0 C0.99 0 1.98 0 3 0 C3.33 6.6 3.66 13.2 4 20 C7.3 20 10.6 20 14 20 C14.33 13.4 14.66 6.8 15 0 C15.99 0 16.98 0 18 0 C18.11638036 3.24969769 18.18730581 6.4988583 18.25 9.75 C18.28351563 10.67039062 18.31703125 11.59078125 18.3515625 12.5390625 C18.4494858 19.29577048 18.4494858 19.29577048 16.33203125 22.61328125 C13.49121968 24.30254106 11.72998952 24.50469366 8.4375 24.4375 C7.48746094 24.43621094 6.53742188 24.43492187 5.55859375 24.43359375 C2.54872901 23.92352507 1.82755128 23.39250243 0 21 C-0.34057617 18.73168945 -0.34057617 18.73168945 -0.29296875 16.11328125 C-0.28330078 15.17548828 -0.27363281 14.23769531 -0.26367188 13.27148438 C-0.23853516 12.29501953 -0.21339844 11.31855469 -0.1875 10.3125 C-0.17396484 9.32443359 -0.16042969 8.33636719 -0.14648438 7.31835938 C-0.11112203 4.87835769 -0.06177033 2.43945281 0 0 Z " fill="#D36E45" transform="translate(311,395)"/>
<path d="M0 0 C1.76923828 0.04060547 1.76923828 0.04060547 3.57421875 0.08203125 C4.47785156 0.11683594 5.38148438 0.15164063 6.3125 0.1875 C6.3125 1.1775 6.3125 2.1675 6.3125 3.1875 C0.3725 3.6825 0.3725 3.6825 -5.6875 4.1875 C-5.6875 6.1675 -5.6875 8.1475 -5.6875 10.1875 C-2.0575 10.1875 1.5725 10.1875 5.3125 10.1875 C5.3125 11.1775 5.3125 12.1675 5.3125 13.1875 C1.3525 13.1875 -2.6075 13.1875 -6.6875 13.1875 C-6.0275 15.4975 -5.3675 17.8075 -4.6875 20.1875 C-1.0575 20.5175 2.5725 20.8475 6.3125 21.1875 C6.3125 21.8475 6.3125 22.5075 6.3125 23.1875 C4.20896505 23.2685206 2.10454048 23.32669907 0 23.375 C-1.17175781 23.40980469 -2.34351563 23.44460938 -3.55078125 23.48046875 C-6.6875 23.1875 -6.6875 23.1875 -8.35864258 21.91333008 C-10.65739794 18.9278622 -10.11676173 15.2989195 -10.0625 11.6875 C-10.07410156 10.91535156 -10.08570313 10.14320313 -10.09765625 9.34765625 C-10.06819838 3.68192528 -10.06819838 3.68192528 -8.35864258 1.46166992 C-5.70939861 -0.55825766 -3.25605734 -0.09671457 0 0 Z " fill="#CE573F" transform="translate(228.6875,394.8125)"/>
<path d="M0 0 C0.99 0 1.98 0 3 0 C3 3.3 3 6.6 3 10 C6.96 10 10.92 10 15 10 C15 6.7 15 3.4 15 0 C15.66 0 16.32 0 17 0 C17 7.59 17 15.18 17 23 C16.34 23 15.68 23 15 23 C15 19.7 15 16.4 15 13 C11.04 13 7.08 13 3 13 C3 16.63 3 20.26 3 24 C2.01 24 1.02 24 0 24 C0 16.08 0 8.16 0 0 Z " fill="#D26442" transform="translate(268,395)"/>
<path d="M0 0 C5.94 0 11.88 0 18 0 C17.67 0.99 17.34 1.98 17 3 C15.02 3 13.04 3 11 3 C11 9.6 11 16.2 11 23 C9.68 23 8.36 23 7 23 C7 16.4 7 9.8 7 3 C4.69 3 2.38 3 0 3 C0 2.01 0 1.02 0 0 Z " fill="#C4894A" transform="translate(490,395)"/>
<path d="M0 0 C5.61 0 11.22 0 17 0 C17 0.99 17 1.98 17 3 C14.69 3 12.38 3 10 3 C10 9.93 10 16.86 10 24 C9.01 24 8.02 24 7 24 C7 17.07 7 10.14 7 3 C4.69 3 2.38 3 0 3 C0 2.01 0 1.02 0 0 Z " fill="#D4864A" transform="translate(425,395)"/>
<path d="M0 0 C5.61 0 11.22 0 17 0 C17 0.66 17 1.32 17 2 C14.69 2 12.38 2 10 2 C10 8.93 10 15.86 10 23 C9.01 23 8.02 23 7 23 C7 16.4 7 9.8 7 3 C4.69 3 2.38 3 0 3 C0 2.01 0 1.02 0 0 Z " fill="#D17A47" transform="translate(373,395)"/>
<path d="M0 0 C5.61 0 11.22 0 17 0 C17 0.99 17 1.98 17 3 C14.69 3 12.38 3 10 3 C10 9.6 10 16.2 10 23 C9.01 23 8.02 23 7 23 C7 16.07 7 9.14 7 2 C4.69 2 2.38 2 0 2 C0 1.34 0 0.68 0 0 Z " fill="#CC5D40" transform="translate(249,395)"/>
<path d="M0 0 C1.32 0 2.64 0 4 0 C4.84069415 1.60032137 5.67231505 3.20541171 6.5 4.8125 C6.9640625 5.70582031 7.428125 6.59914063 7.90625 7.51953125 C9 10 9 10 9 13 C8.34 13 7.68 13 7 13 C6.01 11.35 5.02 9.7 4 8 C3.67 13.28 3.34 18.56 3 24 C2.01 24 1.02 24 0 24 C0 16.08 0 8.16 0 0 Z " fill="#E5A352" transform="translate(518,395)"/>
<path d="M0 0 C0.99 0 1.98 0 3 0 C3 7.59 3 15.18 3 23 C2.01 23 1.02 23 0 23 C0 15.41 0 7.82 0 0 Z " fill="#DD9C4F" transform="translate(511,395)"/>
<path d="M0 0 C0.99 0 1.98 0 3 0 C6 6.5 6 6.5 6 11 C3.03 11 0.06 11 -3 11 C-2.01 7.37 -1.02 3.74 0 0 Z " fill="#2D2A28" transform="translate(413,398)"/>
<path d="M0 0 C0.99 0.33 1.98 0.66 3 1 C3.94921875 3.28515625 3.94921875 3.28515625 4.6875 6.0625 C5.06455078 7.44115234 5.06455078 7.44115234 5.44921875 8.84765625 C5.63097656 9.55792969 5.81273437 10.26820313 6 11 C2.7 11 -0.6 11 -4 11 C-2.68 7.37 -1.36 3.74 0 0 Z " fill="#2F2C2A" transform="translate(465,398)"/>
<path d="M0 0 C0.33 0 0.66 0 1 0 C1 3.3 1 6.6 1 10 C1.66 10 2.32 10 3 10 C1.58192622 14.47238653 -0.11304374 18.71146306 -2 23 C-2.99 23 -3.98 23 -5 23 C-4.5678443 20.06134126 -4.01264429 18.02160066 -2.5 15.4375 C-0.31409851 10.42814242 -0.25403222 5.41351422 0 0 Z " fill="#D2874A" transform="translate(406,214)"/>
<path d="M0 0 C0.66 0 1.32 0 2 0 C1.67 5.61 1.34 11.22 1 17 C-2.36912594 12.50783208 -2.46448528 11.38802925 -2 6 C-1 2.5625 -1 2.5625 0 0 Z " fill="#B9573E" transform="translate(310,197)"/>
<path d="M0 0 C0 0.66 0 1.32 0 2 C-6.93 4.97 -6.93 4.97 -14 8 C-13 4 -13 4 -10.8203125 2.48046875 C-9.93085938 2.05378906 -9.04140625 1.62710938 -8.125 1.1875 C-7.24070312 0.74792969 -6.35640625 0.30835938 -5.4453125 -0.14453125 C-3 -1 -3 -1 0 0 Z " fill="#CE6042" transform="translate(323,137)"/>
<path d="M0 0 C0.89332031 0.22042969 1.78664063 0.44085938 2.70703125 0.66796875 C4.05861328 0.98701172 4.05861328 0.98701172 5.4375 1.3125 C6.12457031 1.49167969 6.81164062 1.67085938 7.51953125 1.85546875 C7.51953125 2.18546875 7.51953125 2.51546875 7.51953125 2.85546875 C3.88953125 3.18546875 0.25953125 3.51546875 -3.48046875 3.85546875 C-3.81046875 9.13546875 -4.14046875 14.41546875 -4.48046875 19.85546875 C-4.81046875 19.85546875 -5.14046875 19.85546875 -5.48046875 19.85546875 C-5.56136417 17.08405158 -5.62090937 14.31499056 -5.66796875 11.54296875 C-5.70567383 10.36444336 -5.70567383 10.36444336 -5.74414062 9.16210938 C-5.75380859 8.40478516 -5.76347656 7.64746094 -5.7734375 6.8671875 C-5.78914795 6.17069092 -5.8048584 5.47419434 -5.82104492 4.7565918 C-5.19512096 1.2626349 -3.49450507 -0.20361683 0 0 Z " fill="#AB583C" transform="translate(294.48046875,395.14453125)"/>
<path d="M0 0 C0.66 0.33 1.32 0.66 2 1 C-1.465 3.97 -1.465 3.97 -5 7 C-3.38262276 3.76524552 -2.52370777 2.29427979 0 0 Z M-10 9 C-9.01 9.33 -8.02 9.66 -7 10 C-8.25 11.5625 -8.25 11.5625 -10 13 C-12.1875 12.6875 -12.1875 12.6875 -14 12 C-12.1875 10.4375 -12.1875 10.4375 -10 9 Z " fill="#D5914D" transform="translate(433,224)"/>
<path d="M0 0 C0.95465783 2.16967689 1.14401212 3.56328793 0.3984375 5.82421875 C-0.35870385 7.5684743 -1.17609198 9.28627131 -2 11 C-2.99 11 -3.98 11 -5 11 C-4.55123384 9.35153231 -4.09069512 7.70626545 -3.625 6.0625 C-3.36976563 5.14597656 -3.11453125 4.22945313 -2.8515625 3.28515625 C-2 1 -2 1 0 0 Z " fill="#CB5D41" transform="translate(313,119)"/>
<path d="M0 0 C0.66 2.97 1.32 5.94 2 9 C0.68 9.33 -0.64 9.66 -2 10 C-2.33 7.03 -2.66 4.06 -3 1 C-1 0 -1 0 0 0 Z " fill="#B74F3C" transform="translate(293,154)"/>
<path d="M0 0 C1.8125 0.125 1.8125 0.125 4 1 C5.75 4.0625 5.75 4.0625 7 7 C4.20171644 6.61402985 3.1794116 6.19863427 1.25 4.0625 C0 2 0 2 0 0 Z " fill="#D2924D" transform="translate(428,168)"/>
<path d="M0 0 C0.33 0.99 0.66 1.98 1 3 C-0.28965176 4.37562854 -1.62689293 5.70766393 -3 7 C-3.66 7 -4.32 7 -5 7 C-3.75023244 3.34683329 -3.32901247 2.21934164 0 0 Z " fill="#CA5940" transform="translate(306,168)"/>
<path d="M0 0 C0.33 0 0.66 0 1 0 C1 3.3 1 6.6 1 10 C1.66 10 2.32 10 3 10 C2.67 10.99 2.34 11.98 2 13 C1.01 13.33 0.02 13.66 -1 14 C-0.67 9.38 -0.34 4.76 0 0 Z " fill="#AF7545" transform="translate(406,214)"/>
<path d="M0 0 C0.33 0.99 0.66 1.98 1 3 C-0.3125 5.1875 -0.3125 5.1875 -2 7 C-2.66 7 -3.32 7 -4 7 C-3.39816251 4.97954558 -2.72693904 2.97888961 -2 1 C-1.34 0.67 -0.68 0.34 0 0 Z " fill="#DCA050" transform="translate(535,401)"/>
<path d="M0 0 C1.77706209 2.66559313 2.87548273 5.0280615 4 8 C3.01 8.33 2.02 8.66 1 9 C-0.61949011 6.42786866 -1.04408751 5.32330841 -0.625 2.25 C-0.41875 1.5075 -0.2125 0.765 0 0 Z " fill="#C96442" transform="translate(329,224)"/>
</svg>
